<svg version="1.0" xmlns="http://www.w3.org/2000/svg" width="158.000000pt" height="148.000000pt" viewBox="0 0 158.000000 148.000000" preserveAspectRatio="xMidYMid meet" style="width: 557.686px; height: auto;"> <g transform="translate(0.000000,148.000000) scale(0.100000,-0.100000)" fill="#000000" stroke="none"> <path d="M570 1333 c-39 -27 -149 -54 -172 -42 -16 9 -25 6 -44 -12 -21 -20 -24 -31 -24 -101 l0 -78 -33 -14 c-34 -14 -77 -70 -77 -99 0 -9 9 -21 21 -27 16 -9 19 -18 15 -36 -4 -14 -11 -58 -16 -97 l-10 -72 30 -27 c17 -16 37 -28 46 -28 21 0 102 -67 109 -91 4 -11 21 -26 38 -35 62 -31 77 -53 77 -109 0 -30 6 -60 16 -73 12 -18 13 -26 4 -37 -19 -23 6 -111 37 -133 14 -9 35 -27 48 -40 21 -21 29 -22 181 -21 88 1 212 4 278 8 l118 6 4 45 c3 24 1 51 -3 60 -4 8 -12 35 -18 60 -9 38 -8 54 7 100 13 37 17 69 13 96 -4 31 -1 46 13 65 12 15 19 40 19 66 0 27 12 66 32 108 42 86 62 145 55 156 -12 20 -35 6 -69 -43 -45 -68 -103 -133 -111 -126 -3 4 11 24 30 46 36 39 45 65 26 77 -5 3 -7 19 -3 35 4 23 2 30 -9 30 -10 0 -18 14 -22 40 -3 21 -13 45 -22 52 -8 7 -26 24 -39 37 -16 17 -41 27 -77 32 -29 4 -87 19 -128 33 -41 14 -93 30 -115 36 -25 6 -44 18 -50 31 -6 13 -31 29 -65 42 -67 24 -64 21 -50 47 9 16 9 25 -1 36 -15 18 -29 18 -59 -3z m40 -21 c0 -4 -4 -12 -9 -17 -12 -14 -22 -61 -15 -68 4 -4 16 -1 27 4 19 11 24 10 87 -20 8 -4 19 -17 24 -28 7 -15 33 -26 100 -43 50 -13 109 -32 131 -42 22 -9 57 -18 78 -18 32 0 45 -7 79 -42 35 -36 39 -45 33 -75 -4 -25 -2 -35 10 -39 8 -3 15 -14 15 -23 0 -9 5 -22 12 -29 9 -9 6 -18 -15 -40 -43 -45 -57 -122 -23 -122 7 0 41 34 76 75 62 72 92 95 52 38 -30 -43 -53 -104 -56 -150 -1 -22 -9 -49 -17 -59 -9 -11 -13 -36 -12 -68 1 -30 -6 -73 -17 -104 -19 -49 -19 -55 -4 -110 22 -79 26 -105 16 -119 -6 -9 -76 -15 -259 -19 -250 -7 -251 -7 -262 14 -7 12 -17 22 -24 22 -43 0 -74 76 -54 129 9 24 7 32 -6 46 -12 11 -17 33 -17 69 0 45 -4 58 -27 81 -15 15 -40 33 -55 41 -15 8 -33 25 -40 38 -15 27 -102 96 -121 96 -7 0 -22 6 -33 14 -19 14 -20 20 -12 87 5 39 13 81 19 92 9 16 7 24 -14 44 -24 24 -24 27 -9 53 9 15 33 36 54 45 l38 16 0 78 c0 57 4 82 15 91 8 6 18 9 23 6 16 -10 118 15 158 39 43 26 54 29 54 17z" class="" stroke-width="2" data-original-fill="none" data-original-stroke="none" data-original-stroke-width="1" data-original-opacity="1" fill="#ff0000" stroke="#ff0000" opacity="0.7"></path>  </g> </svg>